<svg xmlns="http://www.w3.org/2000/svg" version="1.1" xmlns:xlink="http://www.w3.org/1999/xlink" viewBox="0 0 200 200"><rect width="200" height="200" fill="url('#gradient')"></rect><defs><linearGradient id="gradient" gradientTransform="rotate(45 0.5 0.5)"><stop offset="0%" stop-color="#000000"></stop><stop offset="100%" stop-color="#000000"></stop></linearGradient></defs><g><g fill="#ffffff" transform="matrix(4.747561950439648,0,0,4.747561950439648,35.7888336379084,133.49471297954008)" stroke="#ffffff" stroke-width="0.2"><path d="M4.73-14.22L4.73 0L1.31 0L1.31-14.22L4.73-14.22ZM8.99-3.19L8.99-3.19Q9.78-3.19 10.29-2.73Q10.81-2.27 10.81-1.54Q10.81-0.82 10.29-0.36Q9.78 0.11 8.99 0.11L8.99 0.11Q8.20 0.11 7.69-0.36Q7.18-0.83 7.18-1.54Q7.18-2.26 7.69-2.72Q8.20-3.19 8.99-3.19ZM22.06 0L21.23-2.66L16.53-2.66L15.71 0L12.05 0L17.27-14.22L20.49-14.22L25.74 0L22.06 0ZM18.88-10.23L17.35-5.30L20.41-5.30L18.88-10.23Z"></path></g></g></svg>